# Blender 3.4.1
# www.blender.org
mtllib ShapeTriangle.mtl
o 20255_Triangular_Prism_V1
v 2.298650 0.000000 0.484840
v 0.000000 3.981400 0.484840
v -2.298650 0.000000 0.484840
v 0.000000 3.981400 -0.484840
v -2.298650 0.000000 -0.484840
v 2.298650 0.000000 -0.484840
vn -0.0000 -0.0000 1.0000
vn -0.8660 0.5000 -0.0000
vn 0.8660 0.5000 -0.0000
vn -0.0000 -1.0000 -0.0000
vn -0.0000 -0.0000 -1.0000
vt 0.416700 0.000000
vt 0.083300 0.000000
vt -0.250000 0.000000
vt 0.750000 0.000000
vt 0.083300 1.000000
vt 0.333300 1.000000
vt -0.250000 1.000000
vt 0.750000 1.000000
vt 0.416700 1.000000
s 1
usemtl Material.002
f 1/1/1 2/2/1 3/3/1
f 3/3/2 2/2/2 4/5/2 5/7/2
f 2/2/3 1/1/3 6/9/3 4/5/3
f 1/1/4 3/4/4 5/8/4 6/9/4
f 6/9/5 5/8/5 4/6/5
